<?xml version="1.0" encoding="UTF-8"?>
<!--Generator: Apple Native CoreSVG 232.5-->
<!DOCTYPE svg
PUBLIC "-//W3C//DTD SVG 1.1//EN"
       "http://www.w3.org/Graphics/SVG/1.1/DTD/svg11.dtd">
<svg version="1.1" xmlns="http://www.w3.org/2000/svg" xmlns:xlink="http://www.w3.org/1999/xlink" width="22.954" height="22.9908">
 <g>
  <rect height="22.9908" opacity="0" width="22.954" x="0" y="0"/>
  <path d="M10.6178 21.8782L12.3476 21.8782L12.3476 1.13976L10.6178 1.13976ZM1.11344 12.3739L21.8413 12.3739L21.8413 10.6441L1.11344 10.6441ZM3.80355 22.9908L19.1512 22.9908C21.6803 22.9908 22.954 21.7062 22.954 19.2198L22.954 3.79821C22.954 1.31183 21.6803 0.0271472 19.1512 0.0271472L3.80355 0.0271472C1.28499 0.0271472 0.000819795 1.30077 0.000819795 3.79821L0.000819795 19.2198C0.000819795 21.7172 1.28499 22.9908 3.80355 22.9908ZM3.83572 21.2505C2.473 21.2505 1.73059 20.5398 1.73059 19.1348L1.73059 3.88314C1.73059 2.48879 2.473 1.76747 3.83572 1.76747L19.1191 1.76747C20.4596 1.76747 21.2242 2.48879 21.2242 3.88314L21.2242 19.1348C21.2242 20.5398 20.4596 21.2505 19.1191 21.2505Z" fill="#000000" fill-opacity="0.85"/>
 </g>
</svg>
